<svg xmlns="http://www.w3.org/2000/svg" width="491.218" height="227.653" viewBox="0 0 460.51649 213.42491">
    <g transform="translate(-9.173 -144.205)">
        <path d="M51.687 163.702h418.13" fill="none" stroke="#000" stroke-dasharray="1.00000006,3.00000018"/>
        <path d="M51.687 289.702h418.13" fill="none" stroke="#0000ba" stroke-dasharray="1,3"/>
        <path d="M51.687 313.702h418.13" fill="none" stroke="#0f0"/>
        <path d="M51.518 144.205v197.01h418.171" fill="none" stroke="#000" stroke-opacity=".698"/>
        <text y="357.418" x="111.457" style="line-height:125%;-inkscape-font-specification:Roboto;text-align:end" font-weight="400" font-size="40" font-family="Roboto" letter-spacing="0" word-spacing="0" text-anchor="end" fill-opacity=".698">
            <tspan style="-inkscape-font-specification:Roboto;text-align:end" y="357.418" x="111.457" font-size="15">10</tspan>
        </text>
        <text style="line-height:125%;-inkscape-font-specification:Roboto;text-align:end" x="164.671" y="357.418" font-weight="400" font-size="40" font-family="Roboto" letter-spacing="0" word-spacing="0" text-anchor="end" fill-opacity=".698">
            <tspan x="164.671" y="357.418" style="-inkscape-font-specification:Roboto;text-align:end" font-size="15">20</tspan>
        </text>
        <text style="line-height:125%" x="208.83" y="355.845" font-weight="400" font-size="40" font-family="sans-serif" letter-spacing="0" word-spacing="0"/>
        <text style="line-height:125%;-inkscape-font-specification:Roboto;text-align:end" x="217.962" y="357.114" font-weight="400" font-size="40" font-family="Roboto" letter-spacing="0" word-spacing="0" text-anchor="end" fill-opacity=".698">
            <tspan x="217.962" y="357.114" style="-inkscape-font-specification:Roboto;text-align:end" font-size="15">30</tspan>
        </text>
        <text y="356.809" x="266.612" style="line-height:125%;-inkscape-font-specification:Roboto;text-align:end" font-weight="400" font-size="40" font-family="Roboto" letter-spacing="0" word-spacing="0" text-anchor="end" fill-opacity=".698">
            <tspan style="-inkscape-font-specification:Roboto;text-align:end" y="356.809" x="266.612" font-size="15">40</tspan>
        </text>
        <text style="line-height:125%;-inkscape-font-specification:Roboto;text-align:end" x="313.209" y="356.809" font-weight="400" font-size="40" font-family="Roboto" letter-spacing="0" word-spacing="0" text-anchor="end" fill-opacity=".698">
            <tspan x="313.209" y="356.809" style="-inkscape-font-specification:Roboto;text-align:end" font-size="15">50</tspan>
        </text>
        <text y="356.505" x="360.033" style="line-height:125%;-inkscape-font-specification:Roboto;text-align:end" font-weight="400" font-size="40" font-family="Roboto" letter-spacing="0" word-spacing="0" text-anchor="end" fill-opacity=".698">
            <tspan style="-inkscape-font-specification:Roboto;text-align:end" y="356.505" x="360.033" font-size="15">60</tspan>
        </text>
        <text y="357.114" x="409.063" style="line-height:125%;-inkscape-font-specification:Roboto;text-align:end" font-weight="400" font-size="40" font-family="Roboto" letter-spacing="0" word-spacing="0" text-anchor="end" fill-opacity=".698">
            <tspan style="-inkscape-font-specification:Roboto;text-align:end" y="357.114" x="409.063" font-size="15">70</tspan>
        </text>
        <text style="line-height:125%;-inkscape-font-specification:Roboto;text-align:end" x="454.975" y="357.114" font-weight="400" font-size="40" font-family="Roboto" letter-spacing="0" word-spacing="0" text-anchor="end" fill-opacity=".698">
            <tspan x="454.975" y="357.114" style="-inkscape-font-specification:Roboto;text-align:end" font-size="15">80</tspan>
        </text>
        <text style="line-height:125%;-inkscape-font-specification:Roboto;text-align:end" x="44.206" y="356.505" font-weight="400" font-size="40" font-family="Roboto" letter-spacing="0" word-spacing="0" text-anchor="end" fill-opacity=".698">
            <tspan x="44.206" y="356.505" style="-inkscape-font-specification:Roboto;text-align:end" font-size="15">0</tspan>
        </text>
        <text y="319.684" x="44.206" style="line-height:125%;-inkscape-font-specification:Roboto;text-align:end" font-weight="400" font-size="40" font-family="Roboto" letter-spacing="0" word-spacing="0" text-anchor="end" fill-opacity=".698">
            <tspan style="-inkscape-font-specification:Roboto;text-align:end" y="319.684" x="44.206" font-size="15">200</tspan>
        </text>
        <text style="line-height:125%;-inkscape-font-specification:Roboto;text-align:end" x="45.119" y="281.777" font-weight="400" font-size="40" font-family="Roboto" letter-spacing="0" word-spacing="0" text-anchor="end" fill-opacity=".698">
            <tspan x="45.119" y="281.777" style="-inkscape-font-specification:Roboto;text-align:end" font-size="15">400</tspan>
        </text>
        <text y="245.391" x="46.032" style="line-height:125%;-inkscape-font-specification:Roboto;text-align:end" font-weight="400" font-size="40" font-family="Roboto" letter-spacing="0" word-spacing="0" text-anchor="end" fill-opacity=".698">
            <tspan style="-inkscape-font-specification:Roboto;text-align:end" y="245.391" x="46.032" font-size="15">600</tspan>
        </text>
        <text style="line-height:125%;-inkscape-font-specification:Roboto;text-align:end" x="45.423" y="207.223" font-weight="400" font-size="40" font-family="Roboto" letter-spacing="0" word-spacing="0" text-anchor="end" fill-opacity=".698">
            <tspan x="45.423" y="207.223" style="-inkscape-font-specification:Roboto;text-align:end" font-size="15">800</tspan>
        </text>
        <text y="170.403" x="45.728" style="line-height:125%;-inkscape-font-specification:Roboto;text-align:end" font-weight="400" font-size="40" font-family="Roboto" letter-spacing="0" word-spacing="0" text-anchor="end" fill-opacity=".698">
            <tspan style="-inkscape-font-specification:Roboto;text-align:end" y="170.403" x="45.728" font-size="15">1000</tspan>
        </text>
        <path d="M50.714 164.505l105.259 149.527V164.505l101.786 149.527V164.505l93.928 149.527V164.505l95 149.097V164.505l21.393 28.452" fill="none" stroke="red" stroke-opacity=".698"/>
        <circle cx="155.631" cy="313.582" r="2.13"/>
        <circle r="2.13" cy="289.627" cx="139.158"/>
        <text style="line-height:125%;-inkscape-font-specification:Roboto;text-align:end" x="133.304" y="293.095" font-weight="400" font-size="8.75" font-family="Roboto" letter-spacing="0" word-spacing="0" text-anchor="end" fill-opacity=".698">
            <tspan x="133.304" y="293.095">3</tspan>
        </text>
        <text style="line-height:125%;-inkscape-font-specification:Roboto" x="158.205" y="310.322" font-weight="400" font-size="8.75" font-family="Roboto" letter-spacing="0" word-spacing="0" fill-opacity=".698">
            <tspan x="158.205" y="310.322">4</tspan>
        </text>
        <path d="M154.874 317.056c-.174 1.777-1.881 1.882-1.881 1.882h-4.983s-.871-.035-.871.87m-7.736-2.752c.174 1.777 1.881 1.882 1.881 1.882h4.983s.871-.035.871.87" fill="none" stroke="#000" stroke-width=".5" stroke-opacity=".698"/>
        <text style="line-height:125%;-inkscape-font-specification:Roboto;text-align:end" x="149.907" y="327.783" font-weight="400" font-size="8.75" font-family="Roboto" letter-spacing="0" word-spacing="0" text-anchor="end" fill-opacity=".698">
            <tspan x="149.907" y="327.783" style="-inkscape-font-specification:Roboto;text-align:end">1</tspan>
        </text>
        <path d="M159.701 164.975c7.023 1.659 7.437 17.916 7.437 17.916v47.446s-.138 8.295 3.442 8.295m-10.879 73.663c7.023-1.659 7.437-17.917 7.437-17.917v-47.446s-.138-8.295 3.442-8.295" fill="none" stroke="#000" stroke-width=".5" stroke-opacity=".698"/>
        <text y="241.575" x="176.313" style="line-height:125%;-inkscape-font-specification:Roboto;text-align:end" font-weight="400" font-size="8.75" font-family="Roboto" letter-spacing="0" word-spacing="0" text-anchor="end" fill-opacity=".698">
            <tspan y="241.575" x="176.313">9</tspan>
        </text>
        <circle cx="240.981" cy="289.627" r="2.13"/>
        <circle r="2.13" cy="313.582" cx="257.91"/>
        <path d="M237.411 312.833c-2.76-.248-2.923-2.686-2.923-2.686v-7.112s.054-1.244-1.354-1.244m4.277-11.042c-2.76.249-2.923 2.686-2.923 2.686v7.112s.054 1.244-1.354 1.244" fill="none" stroke="#000" stroke-width=".5" stroke-opacity=".698"/>
        <text y="304.851" x="226.29" style="line-height:125%;-inkscape-font-specification:Roboto" font-weight="400" font-size="8.75" font-family="Roboto" letter-spacing="0" word-spacing="0" fill-opacity=".698">
            <tspan y="304.851" x="226.29">8</tspan>
        </text>
        <text style="line-height:125%;-inkscape-font-specification:Roboto" x="463.676" y="322.48" font-weight="400" font-size="8.75" font-family="Roboto" letter-spacing="0" word-spacing="0" fill-opacity=".698">
            <tspan x="463.676" y="322.48">5</tspan>
        </text>
        <text y="287.982" x="463.22" style="line-height:125%;-inkscape-font-specification:Roboto" font-weight="400" font-size="8.75" font-family="Roboto" letter-spacing="0" word-spacing="0" fill-opacity=".698">
            <tspan y="287.982" x="463.22">6</tspan>
        </text>
        <text style="line-height:125%;-inkscape-font-specification:Roboto" x="462.004" y="161.538" font-weight="400" font-size="8.75" font-family="Roboto" letter-spacing="0" word-spacing="0" fill-opacity=".698">
            <tspan x="462.004" y="161.538">7</tspan>
        </text>
        <path d="M335.835 292.45c-1.065 7.044-11.502 7.458-11.502 7.458h-30.461s-5.325-.138-5.325 3.454m-47.292-10.913c1.065 7.045 11.502 7.46 11.502 7.46h30.461s5.325-.139 5.325 3.453" fill="none" stroke="#000" stroke-width=".5" stroke-opacity=".698"/>
        <circle cx="351.223" cy="313.582" r="2.13"/>
        <circle r="2.13" cy="313.582" cx="447.272"/>
        <circle r="2.13" cy="289.627" cx="336.118"/>
        <circle cx="430.951" cy="289.627" r="2.13"/>
        <circle r="2.13" cy="164.646" cx="155.631"/>
        <circle cx="257.91" cy="164.646" r="2.13"/>
        <circle r="2.13" cy="164.646" cx="351.223"/>
        <circle cx="447.272" cy="164.646" r="2.13"/>
        <text style="line-height:125%;-inkscape-font-specification:Roboto" x="285.864" y="311.714" font-weight="400" font-size="8.75" font-family="Roboto" letter-spacing="0" word-spacing="0" fill-opacity=".698">
            <tspan x="285.864" y="311.714">2</tspan>
        </text>
    </g>
</svg>
